<?xml version="1.0" encoding="UTF-8"?>
<svg xmlns="http://www.w3.org/2000/svg" xmlns:xlink="http://www.w3.org/1999/xlink" viewBox="0 0 35 35" width="35px" height="35px">
<g id="surface2096608">
<path style=" stroke:none;fill-rule:nonzero;fill:rgb(100%,100%,100%);fill-opacity:1;" d="M 13.234375 4.898438 C 13.234375 4.898438 8.777344 5.207031 5.863281 7.546875 C 5.847656 7.550781 5.832031 7.5625 5.820312 7.570312 C 5.3125 8.035156 4.933594 8.761719 4.460938 9.800781 C 3.992188 10.839844 3.496094 12.175781 3.039062 13.671875 C 2.136719 16.664062 1.398438 20.339844 1.398438 23.800781 C 1.398438 23.921875 1.425781 24.042969 1.488281 24.148438 C 2.511719 25.945312 4.390625 27.03125 6.148438 27.714844 C 7.902344 28.398438 9.523438 28.671875 10.347656 28.699219 C 10.578125 28.707031 10.800781 28.601562 10.9375 28.414062 L 12.644531 26.054688 C 14.019531 26.378906 15.632812 26.601562 17.5 26.601562 C 19.367188 26.601562 20.980469 26.378906 22.355469 26.054688 L 24.0625 28.414062 C 24.199219 28.601562 24.421875 28.707031 24.652344 28.699219 C 25.476562 28.671875 27.097656 28.398438 28.851562 27.714844 C 30.609375 27.03125 32.488281 25.945312 33.511719 24.148438 C 33.574219 24.042969 33.601562 23.921875 33.601562 23.800781 C 33.601562 20.339844 32.863281 16.664062 31.960938 13.671875 C 31.503906 12.175781 31.007812 10.839844 30.539062 9.800781 C 30.066406 8.761719 29.6875 8.035156 29.179688 7.570312 C 29.167969 7.5625 29.152344 7.550781 29.136719 7.546875 C 26.222656 5.207031 21.765625 4.898438 21.765625 4.898438 C 21.714844 4.894531 21.664062 4.894531 21.613281 4.898438 C 21.367188 4.933594 21.164062 5.089844 21.066406 5.316406 C 21.066406 5.316406 20.828125 5.835938 20.671875 6.585938 C 19.308594 6.367188 18.160156 6.300781 17.5 6.300781 C 16.839844 6.300781 15.691406 6.367188 14.328125 6.585938 C 14.171875 5.835938 13.933594 5.316406 13.933594 5.316406 C 13.8125 5.042969 13.53125 4.875 13.234375 4.898438 Z M 12.796875 6.410156 C 12.847656 6.550781 12.882812 6.6875 12.929688 6.847656 C 11.351562 7.214844 9.621094 7.8125 8.007812 8.816406 C 7.75 8.921875 7.585938 9.167969 7.578125 9.445312 C 7.570312 9.71875 7.726562 9.972656 7.972656 10.09375 C 8.222656 10.210938 8.515625 10.175781 8.726562 9.996094 C 11.972656 7.988281 16.097656 7.699219 17.5 7.699219 C 18.902344 7.699219 23.027344 7.988281 26.273438 9.996094 C 26.484375 10.175781 26.777344 10.210938 27.027344 10.09375 C 27.273438 9.972656 27.429688 9.71875 27.421875 9.445312 C 27.414062 9.167969 27.25 8.921875 26.992188 8.816406 C 25.378906 7.8125 23.648438 7.214844 22.070312 6.847656 C 22.117188 6.6875 22.152344 6.550781 22.203125 6.410156 C 23 6.507812 26.105469 6.925781 28.21875 8.597656 C 28.355469 8.722656 28.832031 9.421875 29.269531 10.390625 C 29.707031 11.359375 30.164062 12.617188 30.601562 14.066406 C 31.457031 16.886719 32.144531 20.367188 32.179688 23.558594 C 31.382812 24.847656 29.890625 25.804688 28.351562 26.402344 C 26.949219 26.945312 25.644531 27.191406 24.960938 27.257812 L 23.777344 25.660156 C 24.378906 25.464844 24.921875 25.253906 25.398438 25.046875 C 27.164062 24.269531 28.109375 23.449219 28.109375 23.449219 C 28.398438 23.191406 28.421875 22.746094 28.164062 22.453125 C 27.90625 22.164062 27.457031 22.140625 27.167969 22.398438 C 27.167969 22.398438 26.4375 23.070312 24.828125 23.777344 C 24.238281 24.039062 23.519531 24.296875 22.707031 24.523438 C 22.515625 24.5 22.328125 24.554688 22.179688 24.675781 C 20.875 24.992188 19.328125 25.199219 17.5 25.199219 C 15.660156 25.199219 14.105469 24.972656 12.796875 24.652344 C 12.648438 24.554688 12.46875 24.515625 12.292969 24.542969 C 11.476562 24.316406 10.765625 24.039062 10.171875 23.777344 C 8.5625 23.070312 7.832031 22.398438 7.832031 22.398438 C 7.671875 22.253906 7.453125 22.1875 7.242188 22.226562 C 6.96875 22.265625 6.746094 22.460938 6.671875 22.726562 C 6.59375 22.988281 6.683594 23.273438 6.890625 23.449219 C 6.890625 23.449219 7.835938 24.269531 9.601562 25.046875 C 10.078125 25.253906 10.621094 25.464844 11.222656 25.660156 L 10.039062 27.257812 C 9.355469 27.191406 8.050781 26.945312 6.648438 26.402344 C 5.109375 25.804688 3.617188 24.847656 2.820312 23.558594 C 2.855469 20.367188 3.542969 16.886719 4.398438 14.066406 C 4.835938 12.617188 5.292969 11.359375 5.730469 10.390625 C 6.167969 9.421875 6.644531 8.722656 6.78125 8.597656 C 8.894531 6.925781 12 6.507812 12.796875 6.410156 Z M 12.949219 14.699219 C 11.164062 14.699219 9.800781 16.320312 9.800781 18.199219 C 9.800781 20.078125 11.164062 21.699219 12.949219 21.699219 C 14.734375 21.699219 16.101562 20.078125 16.101562 18.199219 C 16.101562 16.320312 14.734375 14.699219 12.949219 14.699219 Z M 22.050781 14.699219 C 20.265625 14.699219 18.898438 16.320312 18.898438 18.199219 C 18.898438 20.078125 20.265625 21.699219 22.050781 21.699219 C 23.835938 21.699219 25.199219 20.078125 25.199219 18.199219 C 25.199219 16.320312 23.835938 14.699219 22.050781 14.699219 Z M 12.949219 16.101562 C 13.871094 16.101562 14.699219 16.984375 14.699219 18.199219 C 14.699219 19.414062 13.871094 20.300781 12.949219 20.300781 C 12.027344 20.300781 11.199219 19.414062 11.199219 18.199219 C 11.199219 16.984375 12.027344 16.101562 12.949219 16.101562 Z M 22.050781 16.101562 C 22.972656 16.101562 23.800781 16.984375 23.800781 18.199219 C 23.800781 19.414062 22.972656 20.300781 22.050781 20.300781 C 21.128906 20.300781 20.300781 19.414062 20.300781 18.199219 C 20.300781 16.984375 21.128906 16.101562 22.050781 16.101562 Z M 22.050781 16.101562 "/>
</g>
</svg>
