<?xml version="1.0" encoding="utf-8"?>
<!-- Generator: Adobe Illustrator 25.0.0, SVG Export Plug-In . SVG Version: 6.00 Build 0)  -->
<svg version="1.1" id="Layer_1" xmlns="http://www.w3.org/2000/svg" xmlns:xlink="http://www.w3.org/1999/xlink" x="0px" y="0px"
	 viewBox="0 0 5000 5000" style="enable-background:new 0 0 5000 5000;" xml:space="preserve">
<style type="text/css">
	.st0{fill:#FFFFFF;}
</style>
<g>
	<path class="st0" d="M1357.78,2152.58c0-70.61-42.5-132.08-141.89-132.08H989.67v77.15h229.5c41.85,0,60.81,26.81,60.81,58.86
		c0,30.74-17.65,60.81-61.46,60.81h-158.89c-48.38,0-69.3,20.27-69.3,69.97v174.57h77.16v-159.53c0-7.85,3.92-11.11,11.12-11.11
		h137.3C1319.2,2291.21,1357.78,2219.29,1357.78,2152.58z"/>
	<path class="st0" d="M1549.25,2461.85h211.19v-67.35h-211.19c-37.92,0-52.96-20.27-52.96-47.72v-24.87h164.12
		c85,0,117.04-35.94,117.04-99.36c0-66.68-34.66-105.94-116.39-105.94h-111.81c-86.3,0-120.3,48.39-120.3,113.79v117.69
		C1428.95,2413.46,1462.95,2461.85,1549.25,2461.85z M1496.29,2231.04c0-26.81,15.04-47.72,52.96-47.72h111.16
		c34,0,49.04,16.98,49.04,43.16c0,25.5-13.73,41.18-51,41.18h-162.16V2231.04z"/>
	<path class="st0" d="M1984.63,2257.18c-85,0-116.39,36.64-116.39,99.4c0,65.37,34,105.27,115.73,105.27h161.5
		c58.2,0,71.28-19.63,71.28-69.3V2230.4c0-65.4-34-113.79-120.31-113.79h-207.27v66.71h206.61c37.93,0,52.96,20.91,52.96,47.72
		v26.14H1984.63z M2148.74,2376.85c0,12.42-5.23,17.65-18.96,17.65h-145.15c-34.66,0-48.39-16.34-48.39-41.85
		s13.08-40.54,49.7-40.54h162.8V2376.85z"/>
	<path class="st0" d="M2461.18,2461.85h177.84v-67.35h-171.3c-60.15,0-86.31-30.74-86.31-105.27s26.16-105.91,86.31-105.91h171.3
		v-66.71h-177.84c-92.2,0-149.73,56.24-149.73,172.62C2311.45,2405.6,2368.98,2461.85,2461.18,2461.85z"/>
	<path class="st0" d="M2803.71,2183.32h121.61c71.92,0,103.96,31.38,103.96,84.33v194.2h69.96v-194.2
		c0-94.8-57.53-151.04-173.92-151.04h-121.61v-149.7h-69.31v494.94h69.31V2183.32z"/>
	<rect x="3209.64" y="1986.5" class="st0" width="69.97" height="80.44"/>
	<rect x="3209.64" y="2116.61" class="st0" width="69.31" height="345.24"/>
	<path class="st0" d="M3403.78,2461.85h69.96v-278.53h95.46v-66.71h-95.46v-34.63c0-38.59,13.73-51.65,46.43-51.65h47.73v-63.42
		h-62.11c-71.27,0-102,28.76-102,119v30.71h-47.07v66.71h47.07V2461.85z"/>
	<path class="st0" d="M3936.61,2116.61l-117.04,271.35h-9.15c-13.08,0-16.35-1.95-20.92-14.36l-103.96-256.98h-73.23l115.73,290.31
		c11.77,30.1,25.5,42.52,64.73,42.52l-64.73,151.04h74.54l207.92-483.87H3936.61z"/>
	<path class="st0" d="M1293.3,2839.2h-61.15v-59.85h-27.71v138.79c0,39.71,17.51,59.05,50.7,59.05h38.15
		c36.59,0,59.59-22.47,59.59-69.01C1352.89,2861.67,1329.89,2839.2,1293.3,2839.2z M1290.43,2950.27h-27.18
		c-22.48,0-31.1-9.93-31.1-33.45v-50.98h58.28c24.04,0,34.5,12.54,34.5,42.33C1324.92,2937.99,1314.47,2950.27,1290.43,2950.27z"/>
	<path class="st0" d="M1454.13,2947.66h-3.66c-5.22,0-6.53-0.8-8.36-5.75l-41.55-102.72h-29.27l46.26,116.03
		c4.71,12.03,10.19,16.98,25.87,16.98l-25.87,60.39h29.8l83.1-193.4h-29.53L1454.13,2947.66z"/>
	<path class="st0" d="M1723.96,2839.2h-38.16c-33.19,0-50.7,19.34-50.7,59.05v134.35h27.71v-55.41h61.16
		c36.58,0,59.58-22.47,59.58-69.01C1783.54,2861.67,1760.54,2839.2,1723.96,2839.2z M1721.08,2950.27h-58.28v-50.72
		c0-23.78,8.63-33.71,31.1-33.71h27.18c24.04,0,34.5,12.54,34.5,42.33C1755.58,2937.99,1745.13,2950.27,1721.08,2950.27z"/>
	<path class="st0" d="M1911.7,2921.26c33.98,0,46.78-14.36,46.78-39.74c0-26.65-13.85-42.33-46.51-42.33h-44.69
		c-34.5,0-48.09,19.34-48.09,45.49v47.02c0,26.14,13.59,45.49,48.09,45.49h84.41v-26.91h-84.41c-15.16,0-21.17-8.11-21.17-19.09
		v-9.93H1911.7z M1846.1,2884.94c0-10.73,6.01-19.09,21.17-19.09h44.42c13.59,0,19.6,6.8,19.6,17.24c0,10.21-5.48,16.47-20.38,16.47
		h-64.81V2884.94z"/>
	<path class="st0" d="M2086.1,2839.2h-82.84v26.65h82.58c15.15,0,21.16,8.36,21.16,19.09v10.44h-65.59
		c-33.97,0-46.51,14.65-46.51,39.74c0,26.14,13.59,42.07,46.26,42.07h64.55c23.26,0,28.48-7.85,28.48-27.71v-64.8
		C2134.19,2858.54,2120.61,2839.2,2086.1,2839.2z M2107.01,2943.22c0,4.95-2.09,7.05-7.57,7.05h-58.02
		c-13.85,0-19.34-6.54-19.34-16.73c0-10.21,5.23-16.22,19.86-16.22h65.07V2943.22z"/>
	<path class="st0" d="M2172.19,2908.17c0,46.54,23,69.01,59.85,69.01h71.08v-26.91h-68.47c-24.05,0-34.5-12.29-34.5-42.1
		c0-29.78,10.45-42.33,34.5-42.33h68.47v-26.65h-71.08C2195.19,2839.2,2172.19,2861.67,2172.19,2908.17z"/>
	<path class="st0" d="M2417.68,2839.2h-48.61v-59.85h-27.71v197.84h27.71v-111.33h48.61c28.75,0,41.55,12.54,41.55,33.71v77.63
		h27.96v-77.63C2487.19,2861.67,2464.19,2839.2,2417.68,2839.2z"/>
	<path class="st0" d="M2694.84,2839.2h-38.16c-33.19,0-50.7,19.34-50.7,59.05v134.35h27.71v-55.41h61.16
		c36.58,0,59.58-22.47,59.58-69.01C2754.42,2861.67,2731.42,2839.2,2694.84,2839.2z M2691.96,2950.27h-58.28v-50.72
		c0-23.78,8.63-33.71,31.1-33.71h27.18c24.04,0,34.5,12.54,34.5,42.33C2726.46,2937.99,2716,2950.27,2691.96,2950.27z"/>
	<path class="st0" d="M2792.68,2879.45v97.74h27.71v-93.56c0-12.03,5.48-17.78,17.77-17.78h48.61v-26.65h-56.71
		C2802.87,2839.2,2792.68,2851.74,2792.68,2879.45z"/>
	<path class="st0" d="M3001.55,2839.2h-29.01c-36.85,0-59.85,22.47-59.85,68.98c0,46.54,23,69.01,59.85,69.01h29.01
		c36.59,0,59.85-22.47,59.85-69.01C3061.4,2861.67,3038.14,2839.2,3001.55,2839.2z M2998.94,2950.27h-23.79
		c-24.04,0-34.49-12.29-34.49-42.1c0-29.78,10.45-42.33,34.49-42.33h23.79c23.78,0,34.5,12.54,34.5,42.33
		C3033.44,2937.99,3022.72,2950.27,2998.94,2950.27z"/>
	<rect x="3102.79" y="2787.2" class="st0" width="27.97" height="32.14"/>
	<path class="st0" d="M3102.79,2985.29c0,15.42-5.23,20.65-18.82,20.65h-18.03v26.65h24.3c28.22,0,40.51-11.49,40.51-47.56V2839.2
		h-27.97V2985.29z"/>
	<path class="st0" d="M3265.38,2921.26c33.98,0,46.78-14.36,46.78-39.74c0-26.65-13.85-42.33-46.51-42.33h-44.69
		c-34.5,0-48.09,19.34-48.09,45.49v47.02c0,26.14,13.59,45.49,48.09,45.49h84.41v-26.91h-84.41c-15.16,0-21.17-8.11-21.17-19.09
		v-9.93H3265.38z M3199.79,2884.94c0-10.73,6.01-19.09,21.17-19.09h44.42c13.59,0,19.6,6.8,19.6,17.24
		c0,10.21-5.48,16.47-20.38,16.47h-64.81V2884.94z"/>
	<path class="st0" d="M3344.93,2908.17c0,46.54,23,69.01,59.85,69.01h71.08v-26.91h-68.47c-24.05,0-34.5-12.29-34.5-42.1
		c0-29.78,10.45-42.33,34.5-42.33h68.47v-26.65h-71.08C3367.92,2839.2,3344.93,2861.67,3344.93,2908.17z"/>
	<path class="st0" d="M3547.02,2806.54h-27.96v32.65h-18.82v26.65h18.82v63.77c0,36.07,12.29,47.56,40.77,47.56h24.83v-25.34h-19.07
		c-13.07,0-18.56-5.23-18.56-20.65v-65.34h38.16v-26.65h-38.16V2806.54z"/>
	<rect x="1104.27" y="2618.16" class="st0" width="2480.97" height="50.97"/>
</g>
</svg>
