<?xml version="1.0" encoding="UTF-8"?>
<svg xmlns="http://www.w3.org/2000/svg" xmlns:xlink="http://www.w3.org/1999/xlink" viewBox="0 0 64 64" width="64px" height="64px">
<g id="surface15471616">
<path style=" stroke:none;fill-rule:nonzero;fill:rgb(100%,100%,100%);fill-opacity:1;" d="M 32 8 C 21.773438 8 13.234375 14.320312 9.75 23.25 L 13.4375 24.75 C 16.351562 17.28125 23.421875 12 32 12 C 38.484375 12 44.265625 15.179688 47.875 20 L 40 20 L 40 24 L 54 24 L 54 10 L 50 10 L 50 16.1875 C 45.617188 11.164062 39.140625 8 32 8 Z M 50.5625 39.25 C 47.648438 46.71875 40.578125 52 32 52 C 25.445312 52 19.6875 48.773438 16.0625 44 L 24 44 L 24 40 L 10 40 L 10 54 L 14 54 L 14 47.8125 C 18.375 52.773438 24.789062 56 32 56 C 42.226562 56 50.765625 49.679688 54.25 40.75 Z M 50.5625 39.25 "/>
</g>
</svg>
