<?xml version="1.0" encoding="UTF-8"?>
<svg xmlns="http://www.w3.org/2000/svg" xmlns:xlink="http://www.w3.org/1999/xlink" viewBox="0 0 30 30" width="30px" height="30px">
<g id="surface2723007">
<path style=" stroke:none;fill-rule:nonzero;fill:rgb(100%,100%,100%);fill-opacity:1;" d="M 20.53125 3.28125 C 16.941406 3.28125 14.023438 6.199219 14.023438 9.789062 C 14.023438 10.003906 14.078125 10.214844 14.101562 10.425781 C 9.664062 10 5.738281 7.863281 3.074219 4.59375 C 2.949219 4.4375 2.757812 4.351562 2.558594 4.367188 C 2.359375 4.378906 2.179688 4.496094 2.082031 4.667969 C 1.519531 5.632812 1.199219 6.742188 1.199219 7.929688 C 1.199219 9.371094 1.714844 10.691406 2.511719 11.773438 C 2.359375 11.707031 2.1875 11.667969 2.042969 11.585938 C 1.859375 11.488281 1.636719 11.492188 1.457031 11.601562 C 1.273438 11.710938 1.164062 11.902344 1.164062 12.113281 L 1.164062 12.1875 C 1.164062 14.398438 2.304688 16.316406 3.992188 17.492188 C 3.976562 17.492188 3.957031 17.5 3.9375 17.492188 C 3.730469 17.457031 3.523438 17.53125 3.382812 17.6875 C 3.246094 17.84375 3.203125 18.0625 3.261719 18.261719 C 3.933594 20.347656 5.644531 21.9375 7.761719 22.519531 C 6.074219 23.523438 4.117188 24.113281 2.007812 24.113281 C 1.550781 24.113281 1.109375 24.089844 0.675781 24.039062 C 0.394531 24 0.125 24.164062 0.03125 24.429688 C -0.0664062 24.699219 0.0390625 24.996094 0.28125 25.144531 C 2.988281 26.878906 6.203125 27.898438 9.65625 27.898438 C 15.253906 27.898438 19.648438 25.5625 22.59375 22.21875 C 25.539062 18.875 27.074219 14.535156 27.074219 10.480469 C 27.074219 10.308594 27.0625 10.144531 27.054688 9.976562 C 28.15625 9.132812 29.136719 8.148438 29.90625 6.992188 C 30.058594 6.769531 30.042969 6.472656 29.867188 6.265625 C 29.691406 6.0625 29.398438 5.996094 29.15625 6.113281 C 28.847656 6.25 28.484375 6.265625 28.164062 6.375 C 28.589844 5.804688 28.953125 5.191406 29.175781 4.5 C 29.25 4.261719 29.167969 4.003906 28.972656 3.847656 C 28.777344 3.695312 28.507812 3.675781 28.292969 3.804688 C 27.269531 4.414062 26.136719 4.839844 24.9375 5.101562 C 23.773438 4.011719 22.246094 3.28125 20.53125 3.28125 Z M 20.53125 4.480469 C 22.0625 4.480469 23.445312 5.136719 24.414062 6.167969 C 24.558594 6.320312 24.769531 6.382812 24.976562 6.335938 C 25.757812 6.183594 26.5 5.957031 27.226562 5.664062 C 26.808594 6.226562 26.292969 6.707031 25.6875 7.070312 C 25.414062 7.203125 25.285156 7.519531 25.386719 7.808594 C 25.484375 8.09375 25.785156 8.257812 26.082031 8.195312 C 26.679688 8.121094 27.214844 7.878906 27.789062 7.726562 C 27.273438 8.28125 26.710938 8.78125 26.101562 9.226562 C 25.933594 9.347656 25.84375 9.542969 25.855469 9.75 C 25.867188 9.992188 25.875 10.234375 25.875 10.480469 C 25.875 14.230469 24.4375 18.300781 21.695312 21.414062 C 18.953125 24.523438 14.925781 26.699219 9.65625 26.699219 C 7.261719 26.699219 5.003906 26.171875 2.960938 25.238281 C 5.492188 25.042969 7.828125 24.148438 9.710938 22.667969 C 9.910156 22.511719 9.988281 22.25 9.90625 22.011719 C 9.828125 21.769531 9.605469 21.605469 9.355469 21.601562 C 7.378906 21.566406 5.722656 20.414062 4.835938 18.789062 C 4.871094 18.789062 4.898438 18.789062 4.929688 18.789062 C 5.523438 18.789062 6.109375 18.710938 6.65625 18.5625 C 6.917969 18.484375 7.097656 18.242188 7.089844 17.96875 C 7.082031 17.691406 6.886719 17.457031 6.617188 17.398438 C 4.484375 16.96875 2.882812 15.230469 2.511719 13.070312 C 3.117188 13.277344 3.734375 13.441406 4.40625 13.460938 C 4.679688 13.480469 4.929688 13.308594 5.011719 13.046875 C 5.097656 12.789062 4.996094 12.5 4.761719 12.355469 C 3.335938 11.402344 2.398438 9.777344 2.398438 7.929688 C 2.398438 7.246094 2.578125 6.617188 2.8125 6.019531 C 5.8125 9.3125 10.011719 11.5 14.757812 11.738281 C 14.945312 11.746094 15.125 11.667969 15.25 11.527344 C 15.371094 11.382812 15.417969 11.1875 15.375 11.007812 C 15.285156 10.617188 15.226562 10.203125 15.226562 9.789062 C 15.226562 6.847656 17.59375 4.480469 20.53125 4.480469 Z M 20.53125 4.480469 "/>
</g>
</svg>
